<svg width="139" height="32" viewBox="0 0 139 32" fill="none" xmlns="http://www.w3.org/2000/svg">
<mask id="path-1-outside-1_49_8" maskUnits="userSpaceOnUse" x="2" y="4.88635" width="111" height="27" fill="black">
<rect fill="white" x="2" y="4.88635" width="111" height="27"/>
<path d="M17.6 25.2864H6.8V30.8864H3.6V16.8864L6.4 14.0864H3.6V11.2864H17.6V14.0864H6.8V24.8864L9.2 22.4864H17.6V25.2864ZM25.2094 14.4864H22.4094V11.2864H25.2094V14.4864ZM25.2094 30.8864H22.4094V18.8864L25.2094 16.0864V30.8864ZM44.8078 30.8864H42.0078V19.2864H33.6078V30.8864H30.8078V16.8864H33.6078V18.8864L35.6078 16.8864H42.0078C42.7811 16.8864 43.4345 17.1664 43.9678 17.7264C44.5278 18.2597 44.8078 18.913 44.8078 19.6864V30.8864ZM59.6172 30.8864H54.0172C53.2439 30.8864 52.5772 30.6197 52.0172 30.0864C51.4839 29.5264 51.2172 28.8597 51.2172 28.0864V19.2864H47.2172L49.6172 16.8864H51.2172V14.0864L54.0172 11.2864V16.8864H59.6172V19.2864H54.0172V28.4864H59.6172V30.8864ZM77.6203 30.8864H66.4203C65.647 30.8864 64.9803 30.6197 64.4203 30.0864C63.887 29.5264 63.6203 28.8597 63.6203 28.0864V19.6864C63.6203 18.913 63.887 18.2597 64.4203 17.7264C64.9803 17.1664 65.647 16.8864 66.4203 16.8864H74.8203C75.5936 16.8864 76.247 17.1664 76.7803 17.7264C77.3403 18.2597 77.6203 18.913 77.6203 19.6864V22.4864L74.8203 25.2864H66.8203L69.2203 22.8864H74.8203V19.2864H66.4203V28.4864H77.6203V30.8864ZM94.0188 16.8864L91.5788 19.2864H84.8188V28.4864H93.2188V30.8864H84.8188C84.0454 30.8864 83.3788 30.6197 82.8188 30.0864C82.2854 29.5264 82.0188 28.8597 82.0188 28.0864V19.6864C82.0188 18.913 82.2854 18.2597 82.8188 17.7264C83.3788 17.1664 84.0454 16.8864 84.8188 16.8864H94.0188ZM111.223 30.8864H108.423V19.2864H100.023V30.8864H97.2234V10.4864L100.023 7.68635V18.8864L102.023 16.8864H108.423C109.197 16.8864 109.85 17.1664 110.383 17.7264C110.943 18.2597 111.223 18.913 111.223 19.6864V30.8864Z"/>
</mask>
<path d="M17.6 25.2864H6.8V30.8864H3.6V16.8864L6.4 14.0864H3.6V11.2864H17.6V14.0864H6.8V24.8864L9.2 22.4864H17.6V25.2864ZM25.2094 14.4864H22.4094V11.2864H25.2094V14.4864ZM25.2094 30.8864H22.4094V18.8864L25.2094 16.0864V30.8864ZM44.8078 30.8864H42.0078V19.2864H33.6078V30.8864H30.8078V16.8864H33.6078V18.8864L35.6078 16.8864H42.0078C42.7811 16.8864 43.4345 17.1664 43.9678 17.7264C44.5278 18.2597 44.8078 18.913 44.8078 19.6864V30.8864ZM59.6172 30.8864H54.0172C53.2439 30.8864 52.5772 30.6197 52.0172 30.0864C51.4839 29.5264 51.2172 28.8597 51.2172 28.0864V19.2864H47.2172L49.6172 16.8864H51.2172V14.0864L54.0172 11.2864V16.8864H59.6172V19.2864H54.0172V28.4864H59.6172V30.8864ZM77.6203 30.8864H66.4203C65.647 30.8864 64.9803 30.6197 64.4203 30.0864C63.887 29.5264 63.6203 28.8597 63.6203 28.0864V19.6864C63.6203 18.913 63.887 18.2597 64.4203 17.7264C64.9803 17.1664 65.647 16.8864 66.4203 16.8864H74.8203C75.5936 16.8864 76.247 17.1664 76.7803 17.7264C77.3403 18.2597 77.6203 18.913 77.6203 19.6864V22.4864L74.8203 25.2864H66.8203L69.2203 22.8864H74.8203V19.2864H66.4203V28.4864H77.6203V30.8864ZM94.0188 16.8864L91.5788 19.2864H84.8188V28.4864H93.2188V30.8864H84.8188C84.0454 30.8864 83.3788 30.6197 82.8188 30.0864C82.2854 29.5264 82.0188 28.8597 82.0188 28.0864V19.6864C82.0188 18.913 82.2854 18.2597 82.8188 17.7264C83.3788 17.1664 84.0454 16.8864 84.8188 16.8864H94.0188ZM111.223 30.8864H108.423V19.2864H100.023V30.8864H97.2234V10.4864L100.023 7.68635V18.8864L102.023 16.8864H108.423C109.197 16.8864 109.85 17.1664 110.383 17.7264C110.943 18.2597 111.223 18.913 111.223 19.6864V30.8864Z" fill="white"/>
<path d="M17.6 25.2864V26.2864H18.6V25.2864H17.6ZM6.8 25.2864V24.2864H5.8V25.2864H6.8ZM6.8 30.8864V31.8864H7.8V30.8864H6.8ZM3.6 30.8864H2.6V31.8864H3.6V30.8864ZM3.6 16.8864L2.89289 16.1792L2.6 16.4721V16.8864H3.6ZM6.4 14.0864L7.10711 14.7935L8.81421 13.0864H6.4V14.0864ZM3.6 14.0864H2.6V15.0864H3.6V14.0864ZM3.6 11.2864V10.2864H2.6V11.2864H3.6ZM17.6 11.2864H18.6V10.2864H17.6V11.2864ZM17.6 14.0864V15.0864H18.6V14.0864H17.6ZM6.8 14.0864V13.0864H5.8V14.0864H6.8ZM6.8 24.8864H5.8V27.3006L7.50711 25.5935L6.8 24.8864ZM9.2 22.4864V21.4864H8.78579L8.49289 21.7792L9.2 22.4864ZM17.6 22.4864H18.6V21.4864H17.6V22.4864ZM17.6 25.2864V24.2864H6.8V25.2864V26.2864H17.6V25.2864ZM6.8 25.2864H5.8V30.8864H6.8H7.8V25.2864H6.8ZM6.8 30.8864V29.8864H3.6V30.8864V31.8864H6.8V30.8864ZM3.6 30.8864H4.6V16.8864H3.6H2.6V30.8864H3.6ZM3.6 16.8864L4.30711 17.5935L7.10711 14.7935L6.4 14.0864L5.69289 13.3792L2.89289 16.1792L3.6 16.8864ZM6.4 14.0864V13.0864H3.6V14.0864V15.0864H6.4V14.0864ZM3.6 14.0864H4.6V11.2864H3.6H2.6V14.0864H3.6ZM3.6 11.2864V12.2864H17.6V11.2864V10.2864H3.6V11.2864ZM17.6 11.2864H16.6V14.0864H17.6H18.6V11.2864H17.6ZM17.6 14.0864V13.0864H6.8V14.0864V15.0864H17.6V14.0864ZM6.8 14.0864H5.8V24.8864H6.8H7.8V14.0864H6.8ZM6.8 24.8864L7.50711 25.5935L9.90711 23.1935L9.2 22.4864L8.49289 21.7792L6.09289 24.1792L6.8 24.8864ZM9.2 22.4864V23.4864H17.6V22.4864V21.4864H9.2V22.4864ZM17.6 22.4864H16.6V25.2864H17.6H18.6V22.4864H17.6ZM25.2094 14.4864V15.4864H26.2094V14.4864H25.2094ZM22.4094 14.4864H21.4094V15.4864H22.4094V14.4864ZM22.4094 11.2864V10.2864H21.4094V11.2864H22.4094ZM25.2094 11.2864H26.2094V10.2864H25.2094V11.2864ZM25.2094 30.8864V31.8864H26.2094V30.8864H25.2094ZM22.4094 30.8864H21.4094V31.8864H22.4094V30.8864ZM22.4094 18.8864L21.7023 18.1792L21.4094 18.4721V18.8864H22.4094ZM25.2094 16.0864H26.2094V13.6721L24.5023 15.3792L25.2094 16.0864ZM25.2094 14.4864V13.4864H22.4094V14.4864V15.4864H25.2094V14.4864ZM22.4094 14.4864H23.4094V11.2864H22.4094H21.4094V14.4864H22.4094ZM22.4094 11.2864V12.2864H25.2094V11.2864V10.2864H22.4094V11.2864ZM25.2094 11.2864H24.2094V14.4864H25.2094H26.2094V11.2864H25.2094ZM25.2094 30.8864V29.8864H22.4094V30.8864V31.8864H25.2094V30.8864ZM22.4094 30.8864H23.4094V18.8864H22.4094H21.4094V30.8864H22.4094ZM22.4094 18.8864L23.1165 19.5935L25.9165 16.7935L25.2094 16.0864L24.5023 15.3792L21.7023 18.1792L22.4094 18.8864ZM25.2094 16.0864H24.2094V30.8864H25.2094H26.2094V16.0864H25.2094ZM44.8078 30.8864V31.8864H45.8078V30.8864H44.8078ZM42.0078 30.8864H41.0078V31.8864H42.0078V30.8864ZM42.0078 19.2864H43.0078V18.2864H42.0078V19.2864ZM33.6078 19.2864V18.2864H32.6078V19.2864H33.6078ZM33.6078 30.8864V31.8864H34.6078V30.8864H33.6078ZM30.8078 30.8864H29.8078V31.8864H30.8078V30.8864ZM30.8078 16.8864V15.8864H29.8078V16.8864H30.8078ZM33.6078 16.8864H34.6078V15.8864H33.6078V16.8864ZM33.6078 18.8864H32.6078V21.3006L34.3149 19.5935L33.6078 18.8864ZM35.6078 16.8864V15.8864H35.1936L34.9007 16.1792L35.6078 16.8864ZM43.9678 17.7264L43.2437 18.416L43.2605 18.4337L43.2782 18.4505L43.9678 17.7264ZM44.8078 30.8864V29.8864H42.0078V30.8864V31.8864H44.8078V30.8864ZM42.0078 30.8864H43.0078V19.2864H42.0078H41.0078V30.8864H42.0078ZM42.0078 19.2864V18.2864H33.6078V19.2864V20.2864H42.0078V19.2864ZM33.6078 19.2864H32.6078V30.8864H33.6078H34.6078V19.2864H33.6078ZM33.6078 30.8864V29.8864H30.8078V30.8864V31.8864H33.6078V30.8864ZM30.8078 30.8864H31.8078V16.8864H30.8078H29.8078V30.8864H30.8078ZM30.8078 16.8864V17.8864H33.6078V16.8864V15.8864H30.8078V16.8864ZM33.6078 16.8864H32.6078V18.8864H33.6078H34.6078V16.8864H33.6078ZM33.6078 18.8864L34.3149 19.5935L36.3149 17.5935L35.6078 16.8864L34.9007 16.1792L32.9007 18.1792L33.6078 18.8864ZM35.6078 16.8864V17.8864H42.0078V16.8864V15.8864H35.6078V16.8864ZM42.0078 16.8864V17.8864C42.5075 17.8864 42.8991 18.0542 43.2437 18.416L43.9678 17.7264L44.692 17.0367C43.9699 16.2785 43.0548 15.8864 42.0078 15.8864V16.8864ZM43.9678 17.7264L43.2782 18.4505C43.64 18.7951 43.8078 19.1867 43.8078 19.6864H44.8078H45.8078C45.8078 18.6393 45.4156 17.7243 44.6575 17.0022L43.9678 17.7264ZM44.8078 19.6864H43.8078V30.8864H44.8078H45.8078V19.6864H44.8078ZM59.6172 30.8864V31.8864H60.6172V30.8864H59.6172ZM52.0172 30.0864L51.293 30.776L51.3099 30.7937L51.3275 30.8105L52.0172 30.0864ZM51.2172 19.2864H52.2172V18.2864H51.2172V19.2864ZM47.2172 19.2864L46.5101 18.5792L44.803 20.2864H47.2172V19.2864ZM49.6172 16.8864V15.8864H49.203L48.9101 16.1792L49.6172 16.8864ZM51.2172 16.8864V17.8864H52.2172V16.8864H51.2172ZM51.2172 14.0864L50.5101 13.3792L50.2172 13.6721V14.0864H51.2172ZM54.0172 11.2864H55.0172V8.87214L53.3101 10.5792L54.0172 11.2864ZM54.0172 16.8864H53.0172V17.8864H54.0172V16.8864ZM59.6172 16.8864H60.6172V15.8864H59.6172V16.8864ZM59.6172 19.2864V20.2864H60.6172V19.2864H59.6172ZM54.0172 19.2864V18.2864H53.0172V19.2864H54.0172ZM54.0172 28.4864H53.0172V29.4864H54.0172V28.4864ZM59.6172 28.4864H60.6172V27.4864H59.6172V28.4864ZM59.6172 30.8864V29.8864H54.0172V30.8864V31.8864H59.6172V30.8864ZM54.0172 30.8864V29.8864C53.5006 29.8864 53.0809 29.7185 52.7068 29.3622L52.0172 30.0864L51.3275 30.8105C52.0735 31.5209 52.9871 31.8864 54.0172 31.8864V30.8864ZM52.0172 30.0864L52.7413 29.3967C52.3851 29.0226 52.2172 28.6029 52.2172 28.0864H51.2172H50.2172C50.2172 29.1165 50.5826 30.0301 51.293 30.776L52.0172 30.0864ZM51.2172 28.0864H52.2172V19.2864H51.2172H50.2172V28.0864H51.2172ZM51.2172 19.2864V18.2864H47.2172V19.2864V20.2864H51.2172V19.2864ZM47.2172 19.2864L47.9243 19.9935L50.3243 17.5935L49.6172 16.8864L48.9101 16.1792L46.5101 18.5792L47.2172 19.2864ZM49.6172 16.8864V17.8864H51.2172V16.8864V15.8864H49.6172V16.8864ZM51.2172 16.8864H52.2172V14.0864H51.2172H50.2172V16.8864H51.2172ZM51.2172 14.0864L51.9243 14.7935L54.7243 11.9935L54.0172 11.2864L53.3101 10.5792L50.5101 13.3792L51.2172 14.0864ZM54.0172 11.2864H53.0172V16.8864H54.0172H55.0172V11.2864H54.0172ZM54.0172 16.8864V17.8864H59.6172V16.8864V15.8864H54.0172V16.8864ZM59.6172 16.8864H58.6172V19.2864H59.6172H60.6172V16.8864H59.6172ZM59.6172 19.2864V18.2864H54.0172V19.2864V20.2864H59.6172V19.2864ZM54.0172 19.2864H53.0172V28.4864H54.0172H55.0172V19.2864H54.0172ZM54.0172 28.4864V29.4864H59.6172V28.4864V27.4864H54.0172V28.4864ZM59.6172 28.4864H58.6172V30.8864H59.6172H60.6172V28.4864H59.6172ZM77.6203 30.8864V31.8864H78.6203V30.8864H77.6203ZM64.4203 30.0864L63.6962 30.776L63.713 30.7937L63.7307 30.8105L64.4203 30.0864ZM64.4203 17.7264L63.7132 17.0192L63.7132 17.0192L64.4203 17.7264ZM76.7803 17.7264L76.0562 18.416L76.073 18.4337L76.0907 18.4505L76.7803 17.7264ZM77.6203 22.4864L78.3274 23.1935L78.6203 22.9006V22.4864H77.6203ZM74.8203 25.2864V26.2864H75.2345L75.5274 25.9935L74.8203 25.2864ZM66.8203 25.2864L66.1132 24.5792L64.4061 26.2864H66.8203V25.2864ZM69.2203 22.8864V21.8864H68.8061L68.5132 22.1792L69.2203 22.8864ZM74.8203 22.8864V23.8864H75.8203V22.8864H74.8203ZM74.8203 19.2864H75.8203V18.2864H74.8203V19.2864ZM66.4203 19.2864V18.2864H65.4203V19.2864H66.4203ZM66.4203 28.4864H65.4203V29.4864H66.4203V28.4864ZM77.6203 28.4864H78.6203V27.4864H77.6203V28.4864ZM77.6203 30.8864V29.8864H66.4203V30.8864V31.8864H77.6203V30.8864ZM66.4203 30.8864V29.8864C65.9038 29.8864 65.484 29.7185 65.11 29.3622L64.4203 30.0864L63.7307 30.8105C64.4766 31.5209 65.3902 31.8864 66.4203 31.8864V30.8864ZM64.4203 30.0864L65.1445 29.3967C64.7882 29.0226 64.6203 28.6029 64.6203 28.0864H63.6203H62.6203C62.6203 29.1165 62.9858 30.0301 63.6962 30.776L64.4203 30.0864ZM63.6203 28.0864H64.6203V19.6864H63.6203H62.6203V28.0864H63.6203ZM63.6203 19.6864H64.6203C64.6203 19.1707 64.7869 18.774 65.1274 18.4335L64.4203 17.7264L63.7132 17.0192C62.9871 17.7454 62.6203 18.6553 62.6203 19.6864H63.6203ZM64.4203 17.7264L65.1274 18.4335C65.5049 18.0559 65.9193 17.8864 66.4203 17.8864V16.8864V15.8864C65.3747 15.8864 64.4557 16.2768 63.7132 17.0192L64.4203 17.7264ZM66.4203 16.8864V17.8864H74.8203V16.8864V15.8864H66.4203V16.8864ZM74.8203 16.8864V17.8864C75.32 17.8864 75.7116 18.0542 76.0562 18.416L76.7803 17.7264L77.5045 17.0367C76.7824 16.2785 75.8673 15.8864 74.8203 15.8864V16.8864ZM76.7803 17.7264L76.0907 18.4505C76.4525 18.7951 76.6203 19.1867 76.6203 19.6864H77.6203H78.6203C78.6203 18.6393 78.2281 17.7243 77.47 17.0022L76.7803 17.7264ZM77.6203 19.6864H76.6203V22.4864H77.6203H78.6203V19.6864H77.6203ZM77.6203 22.4864L76.9132 21.7792L74.1132 24.5792L74.8203 25.2864L75.5274 25.9935L78.3274 23.1935L77.6203 22.4864ZM74.8203 25.2864V24.2864H66.8203V25.2864V26.2864H74.8203V25.2864ZM66.8203 25.2864L67.5274 25.9935L69.9274 23.5935L69.2203 22.8864L68.5132 22.1792L66.1132 24.5792L66.8203 25.2864ZM69.2203 22.8864V23.8864H74.8203V22.8864V21.8864H69.2203V22.8864ZM74.8203 22.8864H75.8203V19.2864H74.8203H73.8203V22.8864H74.8203ZM74.8203 19.2864V18.2864H66.4203V19.2864V20.2864H74.8203V19.2864ZM66.4203 19.2864H65.4203V28.4864H66.4203H67.4203V19.2864H66.4203ZM66.4203 28.4864V29.4864H77.6203V28.4864V27.4864H66.4203V28.4864ZM77.6203 28.4864H76.6203V30.8864H77.6203H78.6203V28.4864H77.6203ZM94.0188 16.8864L94.72 17.5993L96.4615 15.8864H94.0188V16.8864ZM91.5788 19.2864V20.2864H91.9881L92.28 19.9993L91.5788 19.2864ZM84.8188 19.2864V18.2864H83.8188V19.2864H84.8188ZM84.8188 28.4864H83.8188V29.4864H84.8188V28.4864ZM93.2188 28.4864H94.2188V27.4864H93.2188V28.4864ZM93.2188 30.8864V31.8864H94.2188V30.8864H93.2188ZM82.8188 30.0864L82.0946 30.776L82.1114 30.7937L82.1291 30.8105L82.8188 30.0864ZM82.8188 17.7264L82.1116 17.0192L82.1116 17.0192L82.8188 17.7264ZM94.0188 16.8864L93.3175 16.1734L90.8775 18.5734L91.5788 19.2864L92.28 19.9993L94.72 17.5993L94.0188 16.8864ZM91.5788 19.2864V18.2864H84.8188V19.2864V20.2864H91.5788V19.2864ZM84.8188 19.2864H83.8188V28.4864H84.8188H85.8188V19.2864H84.8188ZM84.8188 28.4864V29.4864H93.2188V28.4864V27.4864H84.8188V28.4864ZM93.2188 28.4864H92.2188V30.8864H93.2188H94.2188V28.4864H93.2188ZM93.2188 30.8864V29.8864H84.8188V30.8864V31.8864H93.2188V30.8864ZM84.8188 30.8864V29.8864C84.3022 29.8864 83.8825 29.7185 83.5084 29.3622L82.8188 30.0864L82.1291 30.8105C82.875 31.5209 83.7886 31.8864 84.8188 31.8864V30.8864ZM82.8188 30.0864L83.5429 29.3967C83.1866 29.0226 83.0188 28.6029 83.0188 28.0864H82.0188H81.0188C81.0188 29.1165 81.3842 30.0301 82.0946 30.776L82.8188 30.0864ZM82.0188 28.0864H83.0188V19.6864H82.0188H81.0188V28.0864H82.0188ZM82.0188 19.6864H83.0188C83.0188 19.1707 83.1853 18.774 83.5259 18.4335L82.8188 17.7264L82.1116 17.0192C81.3855 17.7454 81.0188 18.6553 81.0188 19.6864H82.0188ZM82.8188 17.7264L83.5259 18.4335C83.9034 18.0559 84.3177 17.8864 84.8188 17.8864V16.8864V15.8864C83.7731 15.8864 82.8541 16.2768 82.1116 17.0192L82.8188 17.7264ZM84.8188 16.8864V17.8864H94.0188V16.8864V15.8864H84.8188V16.8864ZM111.223 30.8864V31.8864H112.223V30.8864H111.223ZM108.423 30.8864H107.423V31.8864H108.423V30.8864ZM108.423 19.2864H109.423V18.2864H108.423V19.2864ZM100.023 19.2864V18.2864H99.0234V19.2864H100.023ZM100.023 30.8864V31.8864H101.023V30.8864H100.023ZM97.2234 30.8864H96.2234V31.8864H97.2234V30.8864ZM97.2234 10.4864L96.5163 9.77924L96.2234 10.0721V10.4864H97.2234ZM100.023 7.68635H101.023V5.27214L99.3163 6.97924L100.023 7.68635ZM100.023 18.8864H99.0234V21.3006L100.731 19.5935L100.023 18.8864ZM102.023 16.8864V15.8864H101.609L101.316 16.1792L102.023 16.8864ZM110.383 17.7264L109.659 18.416L109.676 18.4337L109.694 18.4505L110.383 17.7264ZM111.223 30.8864V29.8864H108.423V30.8864V31.8864H111.223V30.8864ZM108.423 30.8864H109.423V19.2864H108.423H107.423V30.8864H108.423ZM108.423 19.2864V18.2864H100.023V19.2864V20.2864H108.423V19.2864ZM100.023 19.2864H99.0234V30.8864H100.023H101.023V19.2864H100.023ZM100.023 30.8864V29.8864H97.2234V30.8864V31.8864H100.023V30.8864ZM97.2234 30.8864H98.2234V10.4864H97.2234H96.2234V30.8864H97.2234ZM97.2234 10.4864L97.9305 11.1935L100.731 8.39346L100.023 7.68635L99.3163 6.97924L96.5163 9.77924L97.2234 10.4864ZM100.023 7.68635H99.0234V18.8864H100.023H101.023V7.68635H100.023ZM100.023 18.8864L100.731 19.5935L102.731 17.5935L102.023 16.8864L101.316 16.1792L99.3163 18.1792L100.023 18.8864ZM102.023 16.8864V17.8864H108.423V16.8864V15.8864H102.023V16.8864ZM108.423 16.8864V17.8864C108.923 17.8864 109.315 18.0542 109.659 18.416L110.383 17.7264L111.108 17.0367C110.386 16.2785 109.47 15.8864 108.423 15.8864V16.8864ZM110.383 17.7264L109.694 18.4505C110.056 18.7951 110.223 19.1867 110.223 19.6864H111.223H112.223C112.223 18.6393 111.831 17.7243 111.073 17.0022L110.383 17.7264ZM111.223 19.6864H110.223V30.8864H111.223H112.223V19.6864H111.223Z" fill="white" mask="url(#path-1-outside-1_49_8)"/>
<mask id="path-3-outside-2_49_8" maskUnits="userSpaceOnUse" x="111" y="5.85001" width="28" height="26" fill="black">
<rect fill="white" x="111" y="5.85001" width="28" height="26"/>
<path d="M136.274 30.85H131.762L125.09 21.25H124.61L118.322 30.85H113.714L122.402 18.61L114.194 7.33001H118.802L124.946 16.402H125.426L131.282 7.33001H135.794L127.682 18.61L136.274 30.85Z"/>
</mask>
<path d="M136.274 30.85H131.762L125.09 21.25H124.61L118.322 30.85H113.714L122.402 18.61L114.194 7.33001H118.802L124.946 16.402H125.426L131.282 7.33001H135.794L127.682 18.61L136.274 30.85Z" fill="#00598A"/>
<path d="M136.274 30.85V31.85H138.198L137.093 30.2755L136.274 30.85ZM131.762 30.85L130.941 31.4207L131.24 31.85H131.762V30.85ZM125.09 21.25L125.912 20.6793L125.613 20.25H125.09V21.25ZM124.61 21.25V20.25H124.07L123.774 20.7021L124.61 21.25ZM118.322 30.85V31.85H118.863L119.159 31.3979L118.322 30.85ZM113.714 30.85L112.899 30.2712L111.778 31.85H113.714V30.85ZM122.402 18.61L123.218 19.1888L123.634 18.6028L123.211 18.0216L122.402 18.61ZM114.194 7.33001V6.33001H112.23L113.386 7.91838L114.194 7.33001ZM118.802 7.33001L119.63 6.76925L119.333 6.33001H118.802V7.33001ZM124.946 16.402L124.118 16.9628L124.416 17.402H124.946V16.402ZM125.426 16.402V17.402H125.971L126.267 16.9443L125.426 16.402ZM131.282 7.33001V6.33001H130.738L130.442 6.78768L131.282 7.33001ZM135.794 7.33001L136.606 7.91386L137.745 6.33001H135.794V7.33001ZM127.682 18.61L126.871 18.0262L126.456 18.603L126.864 19.1845L127.682 18.61ZM136.274 30.85V29.85H131.762V30.85V31.85H136.274V30.85ZM131.762 30.85L132.584 30.2793L125.912 20.6793L125.09 21.25L124.269 21.8207L130.941 31.4207L131.762 30.85ZM125.09 21.25V20.25H124.61V21.25V22.25H125.09V21.25ZM124.61 21.25L123.774 20.7021L117.486 30.3021L118.322 30.85L119.159 31.3979L125.447 21.7979L124.61 21.25ZM118.322 30.85V29.85H113.714V30.85V31.85H118.322V30.85ZM113.714 30.85L114.53 31.4288L123.218 19.1888L122.402 18.61L121.587 18.0312L112.899 30.2712L113.714 30.85ZM122.402 18.61L123.211 18.0216L115.003 6.74163L114.194 7.33001L113.386 7.91838L121.594 19.1984L122.402 18.61ZM114.194 7.33001V8.33001H118.802V7.33001V6.33001H114.194V7.33001ZM118.802 7.33001L117.974 7.89076L124.118 16.9628L124.946 16.402L125.774 15.8413L119.63 6.76925L118.802 7.33001ZM124.946 16.402V17.402H125.426V16.402V15.402H124.946V16.402ZM125.426 16.402L126.267 16.9443L132.123 7.87234L131.282 7.33001L130.442 6.78768L124.586 15.8597L125.426 16.402ZM131.282 7.33001V8.33001H135.794V7.33001V6.33001H131.282V7.33001ZM135.794 7.33001L134.983 6.74616L126.871 18.0262L127.682 18.61L128.494 19.1939L136.606 7.91386L135.794 7.33001ZM127.682 18.61L126.864 19.1845L135.456 31.4245L136.274 30.85L137.093 30.2755L128.501 18.0355L127.682 18.61Z" fill="#00598A" mask="url(#path-3-outside-2_49_8)"/>
</svg>
