<svg width="35" height="34" viewBox="0 0 35 34" fill="none" xmlns="http://www.w3.org/2000/svg">
<mask id="path-1-outside-1_48_6" maskUnits="userSpaceOnUse" x="0" y="0" width="35" height="34" fill="black">
<rect fill="white" width="35" height="34"/>
<path d="M32.72 33H26.704L17.808 20.2H17.168L8.784 33H2.64L14.224 16.68L3.28 1.64H9.424L17.616 13.736H18.256L26.064 1.64H32.08L21.264 16.68L32.72 33Z"/>
</mask>
<path d="M32.72 33H26.704L17.808 20.2H17.168L8.784 33H2.64L14.224 16.68L3.28 1.64H9.424L17.616 13.736H18.256L26.064 1.64H32.08L21.264 16.68L32.72 33Z" fill="#00598A"/>
<path d="M32.72 33V34H34.6437L33.5385 32.4255L32.72 33ZM26.704 33L25.8828 33.5707L26.1812 34H26.704V33ZM17.808 20.2L18.6292 19.6293L18.3308 19.2H17.808V20.2ZM17.168 20.2V19.2H16.6276L16.3315 19.6521L17.168 20.2ZM8.784 33V34H9.32442L9.62053 33.5479L8.784 33ZM2.64 33L1.82454 32.4212L0.703892 34H2.64V33ZM14.224 16.68L15.0395 17.2588L15.4555 16.6727L15.0326 16.0916L14.224 16.68ZM3.28 1.64V0.639999H1.31562L2.47141 2.22838L3.28 1.64ZM9.424 1.64L10.252 1.07925L9.9545 0.639999H9.424V1.64ZM17.616 13.736L16.788 14.2967L17.0855 14.736H17.616V13.736ZM18.256 13.736V14.736H18.8007L19.0962 14.2783L18.256 13.736ZM26.064 1.64V0.639999H25.5193L25.2238 1.09767L26.064 1.64ZM32.08 1.64L32.8919 2.22385L34.0309 0.639999H32.08V1.64ZM21.264 16.68L20.4521 16.0961L20.0373 16.673L20.4455 17.2545L21.264 16.68ZM32.72 33V32H26.704V33V34H32.72V33ZM26.704 33L27.5252 32.4293L18.6292 19.6293L17.808 20.2L16.9868 20.7707L25.8828 33.5707L26.704 33ZM17.808 20.2V19.2H17.168V20.2V21.2H17.808V20.2ZM17.168 20.2L16.3315 19.6521L7.94747 32.4521L8.784 33L9.62053 33.5479L18.0045 20.7479L17.168 20.2ZM8.784 33V32H2.64V33V34H8.784V33ZM2.64 33L3.45546 33.5788L15.0395 17.2588L14.224 16.68L13.4085 16.1012L1.82454 32.4212L2.64 33ZM14.224 16.68L15.0326 16.0916L4.08859 1.05162L3.28 1.64L2.47141 2.22838L13.4154 17.2684L14.224 16.68ZM3.28 1.64V2.64H9.424V1.64V0.639999H3.28V1.64ZM9.424 1.64L8.59602 2.20075L16.788 14.2967L17.616 13.736L18.444 13.1752L10.252 1.07925L9.424 1.64ZM17.616 13.736V14.736H18.256V13.736V12.736H17.616V13.736ZM18.256 13.736L19.0962 14.2783L26.9042 2.18233L26.064 1.64L25.2238 1.09767L17.4158 13.1937L18.256 13.736ZM26.064 1.64V2.64H32.08V1.64V0.639999H26.064V1.64ZM32.08 1.64L31.2681 1.05615L20.4521 16.0961L21.264 16.68L22.0759 17.2638L32.8919 2.22385L32.08 1.64ZM21.264 16.68L20.4455 17.2545L31.9015 33.5745L32.72 33L33.5385 32.4255L22.0825 16.1055L21.264 16.68Z" fill="#00598A" mask="url(#path-1-outside-1_48_6)"/>
</svg>
